<?xml version="1.0" encoding="UTF-8" standalone="no"?>
<svg
   xmlns:dc="http://purl.org/dc/elements/1.1/"
   xmlns:cc="http://creativecommons.org/ns#"
   xmlns:rdf="http://www.w3.org/1999/02/22-rdf-syntax-ns#"
   xmlns:svg="http://www.w3.org/2000/svg"
   xmlns="http://www.w3.org/2000/svg"
   xmlns:sodipodi="http://sodipodi.sourceforge.net/DTD/sodipodi-0.dtd"
   xmlns:inkscape="http://www.inkscape.org/namespaces/inkscape"
   version="1.1"
   id="svg9"
   xml:space="preserve"
   width="263.905"
   height="263.34799"
   viewBox="0 0 263.905 263.34799"
   sodipodi:docname="logo_dark.svg"
   inkscape:version="1.0.1 (3bc2e813f5, 2020-09-07)"><metadata
     id="metadata381"><rdf:rdf><cc:work
         rdf:about=""><dc:format>image/svg+xml</dc:format><dc:type
           rdf:resource="http://purl.org/dc/dcmitype/StillImage" /><dc:title /></cc:work></rdf:rdf><rdf:RDF><cc:Work
         rdf:about=""><dc:format>image/svg+xml</dc:format><dc:type
           rdf:resource="http://purl.org/dc/dcmitype/StillImage" /></cc:Work></rdf:RDF></metadata><defs
     id="defs13"><inkscape:path-effect
       effect="fillet_chamfer"
       id="path-effect2031"
       is_visible="true"
       lpeversion="1"
       satellites_param="F,0,0,1,0,0,0,1 @ F,0,0,1,0,5,0,1 @ F,0,0,1,0,5,0,1 @ F,0,0,1,0,5,0,1 @ F,0,0,1,0,0,0,1 | F,0,0,1,0,5,0,1 @ F,0,0,1,0,5,0,1 @ F,0,0,1,0,5,0,1 @ F,0,0,1,0,5,0,1 @ F,0,0,1,0,5,0,1 @ F,0,0,1,0,5,0,1"
       unit="px"
       method="auto"
       mode="F"
       radius="5"
       chamfer_steps="1"
       flexible="false"
       use_knot_distance="true"
       apply_no_radius="true"
       apply_with_radius="true"
       only_selected="false"
       hide_knots="false" /><inkscape:path-effect
       effect="fillet_chamfer"
       id="path-effect2029"
       is_visible="true"
       lpeversion="1"
       satellites_param="F,0,0,1,0,0,0,1 @ F,0,0,1,0,0,0,1 @ F,0,0,1,0,0,0,1 @ F,0,0,1,0,0,0,1 | F,0,0,1,0,5,0,1 @ F,0,0,1,0,5,0,1 @ F,0,0,1,0,5,0,1 @ F,0,0,1,0,5,0,1 @ F,0,0,1,0,5,0,1 @ F,0,0,1,0,5,0,1"
       unit="px"
       method="auto"
       mode="F"
       radius="5"
       chamfer_steps="1"
       flexible="false"
       use_knot_distance="true"
       apply_no_radius="true"
       apply_with_radius="true"
       only_selected="false"
       hide_knots="false" /><inkscape:path-effect
       effect="fillet_chamfer"
       id="path-effect2027"
       is_visible="true"
       lpeversion="1"
       satellites_param="F,0,0,1,0,0,0,1 @ F,0,0,1,0,0,0,1 @ F,0,0,1,0,0,0,1 @ F,0,0,1,0,0,0,1 | F,0,0,1,0,5,0,1 @ F,0,0,1,0,5,0,1 @ F,0,0,1,0,5,0,1 @ F,0,0,1,0,5,0,1 @ F,0,0,1,0,5,0,1 @ F,0,0,1,0,5,0,1"
       unit="px"
       method="auto"
       mode="F"
       radius="5"
       chamfer_steps="1"
       flexible="false"
       use_knot_distance="true"
       apply_no_radius="true"
       apply_with_radius="true"
       only_selected="false"
       hide_knots="false" /><clipPath
       clipPathUnits="userSpaceOnUse"
       id="clipPath23"><path
         d="M 0,425.197 H 283.46 V 0 H 0 Z"
         id="path21" /></clipPath><inkscape:path-effect
       effect="fillet_chamfer"
       id="path-effect1961"
       is_visible="true"
       lpeversion="1"
       satellites_param="F,0,0,1,0,0,0,1 @ F,0,0,1,0,0,0,1 @ F,0,0,1,0,0,0,1 @ F,0,0,1,0,0,0,1 | F,0,0,1,0,5,0,1 @ F,0,0,1,0,5,0,1 @ F,0,0,1,0,5,0,1 @ F,0,0,1,0,5,0,1 @ F,0,0,1,0,5,0,1 @ F,0,0,1,0,5,0,1"
       unit="px"
       method="auto"
       mode="F"
       radius="5"
       chamfer_steps="1"
       flexible="false"
       use_knot_distance="true"
       apply_no_radius="true"
       apply_with_radius="true"
       only_selected="false"
       hide_knots="false" /><inkscape:path-effect
       effect="fillet_chamfer"
       id="path-effect1957"
       is_visible="true"
       lpeversion="1"
       satellites_param="F,0,0,1,0,0,0,1 @ F,0,0,1,0,0,0,1 @ F,0,0,1,0,0,0,1 @ F,0,0,1,0,0,0,1 | F,0,0,1,0,5,0,1 @ F,0,0,1,0,5,0,1 @ F,0,0,1,0,5,0,1 @ F,0,0,1,0,5,0,1 @ F,0,0,1,0,5,0,1 @ F,0,0,1,0,5,0,1"
       unit="px"
       method="auto"
       mode="F"
       radius="5"
       chamfer_steps="1"
       flexible="false"
       use_knot_distance="true"
       apply_no_radius="true"
       apply_with_radius="true"
       only_selected="false"
       hide_knots="false" /><inkscape:path-effect
       effect="fillet_chamfer"
       id="path-effect1959"
       is_visible="true"
       lpeversion="1"
       satellites_param="F,0,0,1,0,0,0,1 @ F,0,0,1,0,0,0,1 @ F,0,0,1,0,0.080415916,0,1 @ F,0,0,1,0,0,0,1 | F,0,0,1,0,5,0,1 @ F,0,0,1,0,5,0,1 @ F,0,0,1,0,5,0,1 @ F,0,0,1,0,5,0,1 @ F,0,0,1,0,5,0,1 @ F,0,0,1,0,5,0,1"
       unit="px"
       method="auto"
       mode="F"
       radius="5"
       chamfer_steps="1"
       flexible="false"
       use_knot_distance="true"
       apply_no_radius="true"
       apply_with_radius="true"
       only_selected="false"
       hide_knots="false" /></defs><sodipodi:namedview
     id="namedview11"
     pagecolor="#ffffff"
     bordercolor="#666666"
     borderopacity="1.0"
     inkscape:pageshadow="2"
     inkscape:pageopacity="0.0"
     inkscape:pagecheckerboard="0"
     showgrid="false"
     inkscape:zoom="1.4142136"
     inkscape:cx="58.508486"
     inkscape:cy="164.68262"
     inkscape:window-width="1920"
     inkscape:window-height="1017"
     inkscape:window-x="-8"
     inkscape:window-y="-8"
     inkscape:window-maximized="1"
     inkscape:current-layer="g15"
     inkscape:document-rotation="0" /><g
     id="g15"
     inkscape:groupmode="layer"
     inkscape:label="LOGO SPS KARVINA"
     transform="matrix(1.3333333,0,0,-1.3333333,0,566.92933)"><path
       d="m 98.988273,361.36996 c -12.327,0 -22.321,9.988 -22.321,22.308 0,12.329 9.994,22.333 22.321,22.333 12.319997,0 22.312997,-10.004 22.312997,-22.333 0,-12.32 -9.993,-22.308 -22.312997,-22.308 m 19.055997,63.827 H 79.919273 a 8.6602688,8.6602688 29.999958 0 1 -7.500006,-4.33012 L 53.359279,387.85408 a 8.6609517,8.6609517 89.997917 0 1 -3.15e-4,-8.66043 l 19.060618,-33.01938 a 8.6595416,8.6595416 149.99796 0 1 7.499691,-4.33031 h 38.124997 a 8.6604413,8.6604413 29.999463 0 1 7.50008,4.33008 l 19.06484,33.01984 a 8.6591523,8.6591523 90.002084 0 1 -3.2e-4,8.65998 l -19.0642,33.0132 a 8.6611687,8.6611687 150.00262 0 1 -7.5004,4.3299 z"
       style="fill:#1b1b1b;fill-opacity:1;fill-rule:nonzero;stroke:none"
       id="path27-9"
       inkscape:path-effect="#path-effect2027"
       inkscape:original-d="m 98.988273,361.36996 c -12.327,0 -22.321,9.988 -22.321,22.308 0,12.329 9.994,22.333 22.321,22.333 12.319997,0 22.312997,-10.004 22.312997,-22.333 0,-12.32 -9.993,-22.308 -22.312997,-22.308 m 24.055997,63.827 H 74.919273 l -24.06,-41.673 24.06,-41.68 h 48.124997 l 24.065,41.68 z" /><path
       d="m 46.77637,272.52236 c -12.323,0 -22.317,9.994 -22.317,22.32 0,12.327 9.994,22.322 22.317,22.322 12.336,0 22.318,-9.995 22.318,-22.322 0,-12.326 -9.982,-22.32 -22.318,-22.32 m 19.069,63.843 h -38.129 A 8.6589257,8.6589257 30.003806 0 1 20.216945,332.0349 L 1.1597947,299.01682 a 8.6623919,8.6623919 90.001488 0 1 2.25e-4,-8.66079 L 20.21672,257.34269 a 8.6594451,8.6594451 149.99768 0 1 7.49965,-4.33033 l 38.129,0 a 8.6594451,8.6594451 30.002318 0 1 7.49965,4.33033 l 19.0567,33.01334 a 8.6623919,8.6623919 89.998512 0 1 2.25e-4,8.66079 l -19.05715,33.01808 a 8.6589257,8.6589257 149.99619 0 1 -7.499425,4.33046 z"
       style="fill:#1f1f1f;fill-opacity:1;fill-rule:nonzero;stroke:none"
       id="path35-3"
       inkscape:path-effect="#path-effect2029"
       inkscape:original-d="m 46.77637,272.52236 c -12.323,0 -22.317,9.994 -22.317,22.32 0,12.327 9.994,22.322 22.317,22.322 12.336,0 22.318,-9.995 22.318,-22.322 0,-12.326 -9.982,-22.32 -22.318,-22.32 m 24.069,63.843 h -48.129 l -24.056,-41.679 24.056,-41.674 h 48.129 l 24.056,41.674 z" /><path
       d="m 151.13087,272.52236 c -10.61308,0 -19.49817,7.42134 -21.75233,17.36109 -0.60947,2.68744 -0.60946,7.23037 -9e-5,9.91785 1.89208,8.34452 8.45668,14.91443 16.79368,16.80922 2.68714,0.61071 7.23017,0.61065 9.91774,0.002 8.35205,-1.89265 14.92438,-8.46396 16.81812,-16.81091 0.60971,-2.68739 0.60972,-7.23039 -9e-5,-9.91776 -2.25551,-9.93976 -11.14671,-17.36112 -21.77703,-17.36112 m 19.072,63.843 h -38.125 a 8.6601853,8.6601853 30.000197 0 1 -7.49997,-4.33014 L 105.51484,299.0165 a 8.659872,8.659872 90.001488 0 1 2.3e-4,-8.66015 l 19.0626,-33.01398 a 8.6607048,8.6607048 150.00129 0 1 7.5002,-4.33001 h 38.125 a 8.6612448,8.6612448 29.997162 0 1 7.50043,4.32988 l 19.06514,33.01424 a 8.6587925,8.6587925 89.998512 0 1 2.3e-4,8.65989 l -19.0656,33.01898 a 8.6607252,8.6607252 150.00135 0 1 -7.5002,4.33001 z"
       style="fill:#212121;fill-opacity:1;fill-rule:nonzero;stroke:none"
       id="path43-4"
       inkscape:path-effect="#path-effect2031"
       inkscape:original-d="m 151.13087,272.52236 c -12.316,0 -22.305,9.994 -22.305,22.32 0,12.327 9.989,22.322 22.305,22.322 12.336,0 22.33,-9.995 22.33,-22.322 0,-12.326 -9.994,-22.32 -22.33,-22.32 m 24.072,63.843 h -48.125 l -24.063,-41.679 24.063,-41.674 h 48.125 l 24.066,41.674 z" /></g></svg>
