<?xml version="1.0" encoding="UTF-8" standalone="no"?>
<svg
   xmlns:dc="http://purl.org/dc/elements/1.1/"
   xmlns:cc="http://creativecommons.org/ns#"
   xmlns:rdf="http://www.w3.org/1999/02/22-rdf-syntax-ns#"
   xmlns:svg="http://www.w3.org/2000/svg"
   xmlns="http://www.w3.org/2000/svg"
   xmlns:sodipodi="http://sodipodi.sourceforge.net/DTD/sodipodi-0.dtd"
   xmlns:inkscape="http://www.inkscape.org/namespaces/inkscape"
   version="1.1"
   id="svg9"
   xml:space="preserve"
   width="263.905"
   height="263.34799"
   viewBox="0 0 263.905 263.34799"
   sodipodi:docname="logo.svg"
   inkscape:version="1.0.1 (3bc2e813f5, 2020-09-07)"><metadata
     id="metadata381"><rdf:rdf><cc:work
         rdf:about=""><dc:format>image/svg+xml</dc:format><dc:type
           rdf:resource="http://purl.org/dc/dcmitype/StillImage" /><dc:title /></cc:work></rdf:rdf><rdf:RDF><cc:Work
         rdf:about=""><dc:format>image/svg+xml</dc:format><dc:type
           rdf:resource="http://purl.org/dc/dcmitype/StillImage" /></cc:Work></rdf:RDF></metadata><defs
     id="defs13"><inkscape:path-effect
       effect="fillet_chamfer"
       id="path-effect2031"
       is_visible="true"
       lpeversion="1"
       satellites_param="F,0,0,1,0,0,0,1 @ F,0,0,1,0,5,0,1 @ F,0,0,1,0,5,0,1 @ F,0,0,1,0,0,0,1 | F,0,0,1,0,5,0,1 @ F,0,0,1,0,5,0,1 @ F,0,0,1,0,5,0,1 @ F,0,0,1,0,5,0,1 @ F,0,0,1,0,5,0,1 @ F,0,0,1,0,5,0,1"
       unit="px"
       method="auto"
       mode="F"
       radius="5"
       chamfer_steps="1"
       flexible="false"
       use_knot_distance="true"
       apply_no_radius="true"
       apply_with_radius="true"
       only_selected="false"
       hide_knots="false" /><inkscape:path-effect
       effect="fillet_chamfer"
       id="path-effect2029"
       is_visible="true"
       lpeversion="1"
       satellites_param="F,0,0,1,0,0,0,1 @ F,0,0,1,0,0,0,1 @ F,0,0,1,0,0,0,1 @ F,0,0,1,0,0,0,1 | F,0,0,1,0,5,0,1 @ F,0,0,1,0,5,0,1 @ F,0,0,1,0,5,0,1 @ F,0,0,1,0,5,0,1 @ F,0,0,1,0,5,0,1 @ F,0,0,1,0,5,0,1"
       unit="px"
       method="auto"
       mode="F"
       radius="5"
       chamfer_steps="1"
       flexible="false"
       use_knot_distance="true"
       apply_no_radius="true"
       apply_with_radius="true"
       only_selected="false"
       hide_knots="false" /><inkscape:path-effect
       effect="fillet_chamfer"
       id="path-effect2027"
       is_visible="true"
       lpeversion="1"
       satellites_param="F,0,0,1,0,0,0,1 @ F,0,0,1,0,0,0,1 @ F,0,0,1,0,0,0,1 @ F,0,0,1,0,0,0,1 | F,0,0,1,0,5,0,1 @ F,0,0,1,0,5,0,1 @ F,0,0,1,0,5,0,1 @ F,0,0,1,0,5,0,1 @ F,0,0,1,0,5,0,1 @ F,0,0,1,0,5,0,1"
       unit="px"
       method="auto"
       mode="F"
       radius="5"
       chamfer_steps="1"
       flexible="false"
       use_knot_distance="true"
       apply_no_radius="true"
       apply_with_radius="true"
       only_selected="false"
       hide_knots="false" /><clipPath
       clipPathUnits="userSpaceOnUse"
       id="clipPath23"><path
         d="M 0,425.197 H 283.46 V 0 H 0 Z"
         id="path21" /></clipPath><inkscape:path-effect
       effect="fillet_chamfer"
       id="path-effect1961"
       is_visible="true"
       lpeversion="1"
       satellites_param="F,0,0,1,0,0,0,1 @ F,0,0,1,0,0,0,1 @ F,0,0,1,0,0,0,1 @ F,0,0,1,0,0,0,1 | F,0,0,1,0,5,0,1 @ F,0,0,1,0,5,0,1 @ F,0,0,1,0,5,0,1 @ F,0,0,1,0,5,0,1 @ F,0,0,1,0,5,0,1 @ F,0,0,1,0,5,0,1"
       unit="px"
       method="auto"
       mode="F"
       radius="5"
       chamfer_steps="1"
       flexible="false"
       use_knot_distance="true"
       apply_no_radius="true"
       apply_with_radius="true"
       only_selected="false"
       hide_knots="false" /><inkscape:path-effect
       effect="fillet_chamfer"
       id="path-effect1957"
       is_visible="true"
       lpeversion="1"
       satellites_param="F,0,0,1,0,0,0,1 @ F,0,0,1,0,0,0,1 @ F,0,0,1,0,0,0,1 @ F,0,0,1,0,0,0,1 | F,0,0,1,0,5,0,1 @ F,0,0,1,0,5,0,1 @ F,0,0,1,0,5,0,1 @ F,0,0,1,0,5,0,1 @ F,0,0,1,0,5,0,1 @ F,0,0,1,0,5,0,1"
       unit="px"
       method="auto"
       mode="F"
       radius="5"
       chamfer_steps="1"
       flexible="false"
       use_knot_distance="true"
       apply_no_radius="true"
       apply_with_radius="true"
       only_selected="false"
       hide_knots="false" /><inkscape:path-effect
       effect="fillet_chamfer"
       id="path-effect1959"
       is_visible="true"
       lpeversion="1"
       satellites_param="F,0,0,1,0,0,0,1 @ F,0,0,1,0,0,0,1 @ F,0,0,1,0,0.080415916,0,1 @ F,0,0,1,0,0,0,1 | F,0,0,1,0,5,0,1 @ F,0,0,1,0,5,0,1 @ F,0,0,1,0,5,0,1 @ F,0,0,1,0,5,0,1 @ F,0,0,1,0,5,0,1 @ F,0,0,1,0,5,0,1"
       unit="px"
       method="auto"
       mode="F"
       radius="5"
       chamfer_steps="1"
       flexible="false"
       use_knot_distance="true"
       apply_no_radius="true"
       apply_with_radius="true"
       only_selected="false"
       hide_knots="false" /></defs><sodipodi:namedview
     id="namedview11"
     pagecolor="#ffffff"
     bordercolor="#666666"
     borderopacity="1.0"
     inkscape:pageshadow="2"
     inkscape:pageopacity="0.0"
     inkscape:pagecheckerboard="0"
     showgrid="false"
     inkscape:zoom="1.4142136"
     inkscape:cx="85.378543"
     inkscape:cy="164.68262"
     inkscape:window-width="1920"
     inkscape:window-height="1017"
     inkscape:window-x="-8"
     inkscape:window-y="-8"
     inkscape:window-maximized="1"
     inkscape:current-layer="g15"
     inkscape:document-rotation="0" /><g
     id="g15"
     inkscape:groupmode="layer"
     inkscape:label="LOGO SPS KARVINA"
     transform="matrix(1.3333333,0,0,-1.3333333,0,566.92933)"><g
       id="g2449"
       transform="translate(-40.703132,15.341657)"><g
         id="g1968"
         transform="translate(191.834,257.1807)"><path
           d="m 0,0 c -12.327,0 -22.321,9.988 -22.321,22.308 0,12.329 9.994,22.333 22.321,22.333 12.32,0 22.313,-10.004 22.313,-22.333 C 22.313,9.988 12.32,0 0,0 m 19.056,63.827 h -38.125 a 8.6602688,8.6602688 29.999958 0 1 -7.500006,-4.330123 L -45.628994,26.484123 a 8.6609517,8.6609517 89.997917 0 1 -3.15e-4,-8.660428 l 19.060618,-33.01939 A 8.6595416,8.6595416 149.99796 0 1 -19.069,-19.526 h 38.125 a 8.6604413,8.6604413 29.999463 0 1 7.500081,4.33008 l 19.064838,33.01984 a 8.6591523,8.6591523 90.002084 0 1 -3.15e-4,8.659978 L 26.556396,59.497102 A 8.6611687,8.6611687 150.00262 0 1 19.056,63.827 Z"
           style="fill: #ff561c;fill-opacity:1;fill-rule:nonzero;stroke:none"
           id="path27-9"
           inkscape:path-effect="#path-effect2027"
           inkscape:original-d="m 0,0 c -12.327,0 -22.321,9.988 -22.321,22.308 0,12.329 9.994,22.333 22.321,22.333 12.32,0 22.313,-10.004 22.313,-22.333 C 22.313,9.988 12.32,0 0,0 m 24.056,63.827 h -48.125 l -24.06,-41.673 24.06,-41.68 h 48.125 l 24.065,41.68 z"
           transform="translate(-52.142597,88.847604)" /><path
           d="m 0,0 c -12.323,0 -22.317,9.994 -22.317,22.32 0,12.327 9.994,22.322 22.317,22.322 12.336,0 22.318,-9.995 22.318,-22.322 C 22.318,9.994 12.336,0 0,0 M 19.069,63.843 H -19.06 a 8.6589257,8.6589257 30.003806 0 1 -7.499425,-4.330459 l -19.05715,-33.018082 a 8.6623919,8.6623919 90.001488 0 1 2.25e-4,-8.660788 l 19.0567,-33.013342 A 8.6594451,8.6594451 149.99768 0 1 -19.06,-19.51 h 38.129 a 8.6594451,8.6594451 30.002318 0 1 7.49965,4.330329 l 19.0567,33.013342 a 8.6623919,8.6623919 89.998512 0 1 2.25e-4,8.660788 L 26.568425,59.512541 A 8.6589257,8.6589257 149.99619 0 1 19.069,63.843 Z"
           style="fill: #ff621c;fill-opacity:1;fill-rule:nonzero;stroke:none"
           id="path35-3"
           inkscape:path-effect="#path-effect2029"
           inkscape:original-d="m 0,0 c -12.323,0 -22.317,9.994 -22.317,22.32 0,12.327 9.994,22.322 22.317,22.322 12.336,0 22.318,-9.995 22.318,-22.322 C 22.318,9.994 12.336,0 0,0 M 24.069,63.843 H -24.06 L -48.116,22.164 -24.06,-19.51 h 48.129 l 24.056,41.674 z"
           transform="translate(-104.3545)" /><path
           d="m 0,0 c -12.316,0 -22.305,9.994 -22.305,22.32 0,12.300166 9.945558,22.278473 22.22460243,22.321858 0.04440214,1.57e-4 0.11640113,1.57e-4 0.16081332,0 C 12.379403,44.598534 22.33,34.620203 22.33,22.32 22.33,9.994 12.336,0 0,0 m 19.072,63.843 h -38.125 a 8.6601853,8.6601853 30.000197 0 1 -7.49997,-4.330144 L -45.61603,26.494144 a 8.659872,8.659872 90.001488 0 1 2.25e-4,-8.660158 l 19.06261,-33.013972 A 8.6607048,8.6607048 150.00129 0 1 -19.053,-19.51 h 38.125 a 8.6612448,8.6612448 29.997162 0 1 7.500429,4.329879 l 19.065142,33.014242 a 8.6587925,8.6587925 89.998512 0 1 2.25e-4,8.659888 L 26.572204,59.512991 A 8.6607252,8.6607252 150.00135 0 1 19.072,63.843 Z"
           style="fill: #ff6f1c;fill-opacity:1;fill-rule:nonzero;stroke:none"
           id="path43-4"
           inkscape:path-effect="#path-effect2031"
           inkscape:original-d="m 0,0 c -12.316,0 -22.305,9.994 -22.305,22.32 0,12.327 9.989,22.322 22.305,22.322 12.336,0 22.33,-9.995 22.33,-22.322 C 22.33,9.994 12.336,0 0,0 M 24.072,63.843 H -24.053 L -48.116,22.164 -24.053,-19.51 h 48.125 l 24.066,41.674 z" /></g></g></g></svg>
